# xmcd
# 
# Track frame offsets:
#     150
#     12831
#     26837
#     39148
#     49284
#     59905
#     71218
#     83354
#     95828
#     106540
#     119169
#     129433
#     139866
#     150587
#     161389
#     173440
#     186203
#     197941
#     210480
#     223202
# 
# Disc length: 3107
# 
# Revision: 4
# Processed by: cddbd v1.5.2PL0 Copyright (c) Steve Scherf et al.
# Submitted via: fre:ac v1.0.31
# 
DISCID=1d0c2114
DTITLE=Jimmy Reed - The Sun Is Shining
DYEAR=2004
DGENRE=Blues
TTITLE0=High and Lonesome
TTITLE1=You Don't Have To Go
TTITLE2=I Don't Go For That
TTITLE3=Ain't That Lovin' You Baby
TTITLE4=I Ain't Got You
TTITLE5=Rockin' With Reed
TTITLE6=Honest I Do
TTITLE7=Little Rain
TTITLE8=I Know It's A Sin
TTITLE9=Go On To School
TTITLE10=Going To New York
TTITLE11=Take Out Some Insurance
TTITLE12=Found Love
TTITLE13=Baby What You Want Me To Do
TTITLE14=Bright Lights, Big City
TTITLE15=Shame Shame Shame
TTITLE16=She Don't Want Me No More
TTITLE17=Big Boss Man
TTITLE18=The Sun Is Shining
TTITLE19=Ends and Odds
EXTD=(p)(c) Snapper 2004 Complete Blues Series YEAR: 2004
EXTT0=1953
EXTT1=1953
EXTT2=1955
EXTT3=1955
EXTT4=1955
EXTT5=1953
EXTT6=1957
EXTT7=1957
EXTT8=1958
EXTT9=1958
EXTT10=1958
EXTT11=1959
EXTT12=1959
EXTT13=1959
EXTT14=1961
EXTT15=1963
EXTT16=1955
EXTT17=1960
EXTT18=1957
EXTT19=1957
PLAYORDER=
